<svg width="414" height="495" viewBox="0 0 414 495" fill="none" xmlns="http://www.w3.org/2000/svg">
<path d="M341.752 493.001C246.553 495.141 151.354 493.661 56.1547 493.756C23.5451 493.788 0.0700172 468.503 0.0487246 438.289C-0.0151531 328.175 -0.0364483 218.06 0.1126 107.935C0.133892 88.7181 8.48055 73.5259 24.4926 62.7093C27.942 66.9784 26.6325 72.5358 28.5276 77.316C33.1587 89.0376 40.8453 98.1721 50.8103 105.593C55.3988 118.805 69.1857 122.509 78.3948 113.002C84.2289 106.977 85.794 96.5325 82.302 88.2178C78.629 79.4559 71.677 77.0711 62.9471 77.9228C54.8772 71.354 52.2475 62.7199 53.3547 52.6698C66.8117 52.6165 80.2792 52.5633 93.7361 52.5101C96.2167 53.9367 98.9741 53.4576 101.55 53.2553C106.043 52.904 107.427 54.3626 107.832 59.1215C109.418 77.9015 116.147 94.1265 133.106 104.485C133.479 104.858 133.851 105.231 134.213 105.614L134.128 105.582C135.044 112.683 141.24 118.059 148.682 118.219C157.806 118.421 165.109 111.448 166.823 100.898C168.42 91.0603 162.511 80.7654 153.504 77.7418C152.131 76.7091 150.438 76.5388 148.969 76.9221C143.923 78.2422 141.613 75.0483 139.6 71.4605C136.449 65.8499 134.799 59.8348 135.246 53.3299C137.503 53.0637 139.76 52.5846 142.028 52.5633C153.611 52.4675 165.194 52.4888 176.788 52.4675C179.599 54.0538 182.686 53.3405 185.614 53.266C189.233 53.1702 190.777 54.4371 190.607 58.1633C190.49 60.7823 190.735 63.4545 191.171 66.0416C193.928 82.703 202.286 95.8831 216.105 105.593C217.499 112.449 222.098 116.569 228.508 117.868C235.151 119.22 241.187 117.016 245.201 111.161C250.588 103.304 250.854 94.7333 246.734 86.4931C242.986 79.0087 236.141 76.5707 227.943 77.9867C220.129 71.7906 216.403 60.6971 219.426 52.6485C232.521 52.6059 245.616 52.5527 258.7 52.5101C261.021 53.8409 263.577 53.415 265.993 53.2447C270.411 52.9253 272.743 54.0006 273.02 59.1321C274.106 78.6893 282.261 94.4672 299.018 105.294C300.562 112.853 306.715 118.081 314.189 118.198C324.015 118.357 332.203 109.265 332.075 97.7568C331.968 88.4413 325.463 76.4217 315.317 77.6673C314.849 77.6673 314.37 77.6673 313.902 77.6673C312.869 77.7099 311.836 77.7525 310.803 77.7844C303.596 72.8552 298.88 60.4522 301.179 52.4782C314.711 52.723 328.253 52.0204 341.752 53.4789C342.7 53.9473 343.594 54.5861 344.595 54.8416C370.018 61.3998 385.785 85.865 385.668 110.681C385.157 219.891 385.455 329.101 385.434 438.311C385.434 456.803 377.321 471.122 363.045 482.514C356.636 487.614 348.96 489.753 341.752 493.001ZM192.204 287.378C192.204 287.367 192.204 287.357 192.204 287.346C237.248 287.346 282.303 287.346 327.348 287.357C329.839 287.357 332.298 287.314 334.704 286.494C340.922 284.376 345.021 278.222 344.18 272.175C343.094 264.307 338.984 260.23 331.447 259.762C325.974 259.421 320.481 259.08 314.998 259.08C230.222 259.038 145.445 259.048 60.6687 259.048C58.7205 259.048 56.7616 258.952 54.8239 259.112C48.2658 259.666 43.6133 263.413 41.9951 269.322C39.2696 279.287 46.1791 287.357 57.5919 287.357C102.466 287.399 147.33 287.378 192.204 287.378ZM192.821 355.759C209.845 355.759 226.868 355.759 243.892 355.759C272.615 355.759 301.339 355.77 330.063 355.727C336.706 355.717 341.209 352.853 343.04 347.7C346.852 337 340.432 328.143 328.742 328.132C237.961 328.111 147.17 328.121 56.3889 328.132C55.5053 328.132 54.611 328.079 53.7273 328.175C47.116 328.888 41.9632 334.264 41.5693 340.833C41.005 350.202 46.5091 355.727 56.6337 355.738C102.03 355.77 147.425 355.759 192.821 355.759ZM193.311 218.316C216.009 218.316 238.696 218.316 261.394 218.316C284.092 218.305 306.779 218.316 329.477 218.262C336.961 218.241 342.423 213.961 343.732 207.297C345.713 197.236 339.485 190.635 327.901 190.635C237.834 190.625 147.777 190.635 57.709 190.646C56.4634 190.646 55.2178 190.593 53.9935 190.731C44.135 191.849 38.6522 201.441 42.8042 210.267C45.7852 216.591 51.1935 218.347 57.6878 218.337C102.892 218.284 148.107 218.305 193.311 218.316ZM137.343 397.216C110.589 397.216 83.8351 397.216 57.0703 397.216C54.7813 397.216 52.5137 397.131 50.2886 398.1C43.7092 400.974 40.4408 406.691 41.7077 413.43C43.0385 420.51 48.3616 424.79 56.8467 424.811C111.068 424.896 165.29 424.864 219.511 424.843C223.131 424.843 226.506 423.927 229.264 421.33C234.022 416.858 235.311 411.514 232.841 405.403C230.371 399.313 225.335 397.248 219.213 397.237C191.916 397.205 164.63 397.216 137.343 397.216Z" fill="white"/>
<path d="M53.3542 52.6806C52.247 62.7307 54.8766 71.3648 62.9465 77.9336C64.4689 80.3609 66.4065 82.5541 68.8658 83.8316C72.1449 85.5457 73.9547 88.2711 74.8916 91.465C76.6057 97.3205 76.2011 102.708 71.389 107.466C67.567 111.235 63.7024 109.745 59.6568 108.893C56.548 108.244 54.0887 105.827 50.8097 105.582C40.8341 98.1615 33.1581 89.027 28.527 77.3055C26.6426 72.5253 27.9521 66.9679 24.492 62.6987C24.2365 53.6068 25.2586 44.6107 27.984 35.9765C31.3802 25.2238 38.0128 16.3767 46.8492 9.58438C59.5396 -0.167622 73.6673 -2.53111 88.8915 3.3137C98.8884 7.15701 106.128 14.2581 111.951 22.9029C114.049 26.0222 115.049 25.9371 117.083 22.8709C126.601 8.54103 139.621 -0.0292407 157.262 0.247563C170.602 0.460489 181.205 6.73116 189.85 16.6216C192.278 19.4003 194.407 23.8504 197.292 24.4359C200.912 25.1705 201.572 19.6132 203.754 17.0048C221.076 -3.7661 250.247 -5.41625 269.442 13.4703C272.221 16.1957 274.84 19.0276 277.012 22.2215C279.237 25.5006 280.919 25.458 282.952 21.9447C288.318 12.6505 296.675 6.86955 306.385 2.89848C319.629 -2.52048 332.149 0.0878685 343.902 7.16766C358.69 16.0786 366.44 29.6314 368.516 46.5803C369.091 51.2753 370.795 54.1498 375.937 55.9383C390.799 61.1231 401.573 71.4074 408.355 85.6096C411.347 91.8696 412.933 98.7471 412.943 105.625C413.071 217.357 413.199 329.08 412.912 440.813C412.848 466.609 392.896 489.062 365.887 492.884C357.849 494.023 349.811 495.087 341.752 492.969C348.97 489.722 356.635 487.582 363.044 482.472C377.321 471.091 385.433 456.761 385.433 438.268C385.455 329.058 385.157 219.849 385.668 110.639C385.785 85.8331 370.007 61.3573 344.594 54.7992C343.593 54.5437 342.699 53.8942 341.752 53.4364C341.922 43.7803 338.238 35.8807 330.562 30.0465C325.356 26.0861 319.799 25.2451 313.858 28.9074C305.033 34.3477 301.53 42.5134 301.168 52.4357C298.868 60.4098 303.585 72.8021 310.792 77.742C313.188 82.4476 318.511 84.2575 321.332 88.6863C324.473 93.6262 324.718 100.142 321.194 105.028C317.585 110.053 313.23 111.278 306.683 108.84C304.053 107.86 301.572 106.466 299.017 105.252C282.26 94.4247 274.105 78.6469 273.019 59.0897C272.732 53.9581 270.411 52.8828 265.993 53.2022C263.576 53.3726 261.021 53.7984 258.7 52.4677C258.7 51.222 258.838 49.9658 258.668 48.7415C257.284 38.6807 252.301 31.0047 242.645 27.4382C235.491 24.7979 229.572 28.5561 225.441 33.9325C221.363 39.2343 216.711 44.8768 219.426 52.5954C216.391 60.644 220.118 71.7374 227.932 77.9336C228.475 79.9777 229.976 81.1381 231.733 82.0537C235.14 83.8103 237.482 86.6422 239.387 89.8361C242.315 94.7334 241.527 102.314 237.759 106.583C234.586 110.181 229.103 110.586 223.12 108.02C220.852 107.051 218.936 104.879 216.083 105.539C202.264 95.83 193.907 82.6499 191.149 65.9884C190.723 63.4014 190.468 60.7185 190.585 58.1102C190.755 54.384 189.212 53.1171 185.592 53.2129C182.653 53.2874 179.577 54.0007 176.766 52.4144C175.212 47.4532 175.488 42.0875 172.422 37.3925C164.789 25.7135 153.067 23.0094 143.358 32.8998C137.694 38.6594 136.204 45.7924 135.245 53.2768C134.798 59.7816 136.449 65.7968 139.6 71.4074C141.612 74.9952 143.922 78.1891 148.969 76.869C150.438 76.4857 152.131 76.656 153.504 77.6887C151.279 78.2955 148.649 77.0074 146.339 79.0727C149.618 82.1495 152.972 84.7472 155.644 87.9305C159.647 92.6787 159.892 100.387 156.719 104.698C153.174 109.5 148.33 111.15 142.858 109.191C139.887 108.126 137.034 106.764 134.128 105.539L134.213 105.571C133.84 105.199 133.468 104.826 133.106 104.443C116.146 94.084 109.418 77.8591 107.831 59.079C107.427 54.3201 106.053 52.8616 101.55 53.2129C98.9735 53.4152 96.2268 53.8943 93.7356 52.4677C94.1933 45.7818 91.6702 39.9476 87.9865 34.699C83.3341 28.0983 72.4962 23.2968 63.9153 30.2275C56.6332 36.1469 53.1306 43.4502 53.3542 52.6806Z" fill="#FFD465"/>
<path d="M192.204 287.378C147.33 287.378 102.466 287.399 57.5919 287.367C46.1685 287.357 39.259 279.287 41.9951 269.332C43.6133 263.424 48.2765 259.676 54.8239 259.123C56.7616 258.963 58.7205 259.059 60.6687 259.059C145.445 259.059 230.222 259.048 314.998 259.091C320.481 259.091 325.974 259.431 331.447 259.772C338.984 260.241 343.083 264.329 344.18 272.186C345.01 278.222 340.922 284.376 334.704 286.505C332.309 287.325 329.839 287.367 327.348 287.367C282.303 287.357 237.248 287.357 192.204 287.357C192.204 287.357 192.204 287.367 192.204 287.378Z" fill="#FFBA27"/>
<path d="M192.821 355.759C147.425 355.759 102.04 355.78 56.6445 355.748C46.5092 355.738 41.0051 350.212 41.58 340.844C41.9739 334.275 47.1267 328.899 53.738 328.185C54.611 328.089 55.5053 328.143 56.3996 328.143C147.181 328.143 237.972 328.132 328.753 328.143C340.443 328.143 346.862 337.011 343.051 347.711C341.22 352.863 336.706 355.727 330.073 355.738C301.35 355.77 272.626 355.759 243.902 355.77C226.868 355.759 209.845 355.759 192.821 355.759Z" fill="#FFBA27"/>
<path d="M193.311 218.316C148.107 218.316 102.892 218.294 57.6882 218.326C51.1939 218.337 45.7856 216.58 42.8046 210.257C38.6419 201.441 44.1354 191.849 53.9939 190.721C55.2182 190.582 56.4744 190.635 57.7094 190.635C147.777 190.625 237.834 190.625 327.902 190.625C339.496 190.625 345.724 197.225 343.733 207.286C342.423 213.94 336.962 218.231 329.477 218.252C306.779 218.305 284.092 218.294 261.394 218.305C238.696 218.316 216.009 218.316 193.311 218.316Z" fill="#FFBA27"/>
<path d="M137.343 397.216C164.629 397.216 191.916 397.206 219.202 397.227C225.324 397.237 230.36 399.303 232.83 405.393C235.31 411.503 234.011 416.848 229.252 421.319C226.495 423.917 223.12 424.822 219.5 424.833C165.279 424.865 111.057 424.897 56.8356 424.801C48.3505 424.79 43.0274 420.5 41.6966 413.42C40.4297 406.681 43.6981 400.964 50.2775 398.089C52.5026 397.12 54.7596 397.206 57.0592 397.206C83.824 397.216 110.589 397.216 137.343 397.216Z" fill="#FFBA27"/>
<path d="M301.169 52.4889C301.531 42.5666 305.034 34.3902 313.859 28.9606C319.8 25.2983 325.347 26.1393 330.563 30.0997C338.239 35.9339 341.912 43.8335 341.753 53.4897C328.242 52.0205 314.69 52.7231 301.169 52.4889Z" fill="#FFBA27"/>
<path d="M135.246 53.3302C136.204 45.8458 137.705 38.7235 143.359 32.9532C153.068 23.0628 164.79 25.7669 172.423 37.4459C175.489 42.1409 175.212 47.5067 176.767 52.4678C165.183 52.4891 153.6 52.4678 142.006 52.5637C139.76 52.5849 137.503 53.064 135.246 53.3302Z" fill="#FFBA27"/>
<path d="M53.3549 52.6806C53.142 43.4503 56.6339 36.1469 63.916 30.2808C72.4969 23.3501 83.3348 28.1622 87.9872 34.7523C91.6815 39.9902 94.2047 45.8244 93.7363 52.5209C80.2687 52.5742 66.8118 52.6274 53.3549 52.6806Z" fill="#FFBA27"/>
<path d="M219.426 52.6593C216.712 44.9407 221.364 39.2875 225.442 33.9963C229.583 28.62 235.502 24.8618 242.646 27.5021C252.313 31.0686 257.285 38.7446 258.669 48.8053C258.839 50.019 258.701 51.2859 258.701 52.5315C245.616 52.5635 232.521 52.6061 219.426 52.6593Z" fill="#FFBA27"/>
<path d="M216.094 105.593C218.947 104.943 220.863 107.104 223.131 108.073C229.114 110.639 234.597 110.245 237.77 106.636C241.539 102.356 242.326 94.7865 239.399 89.8893C237.493 86.6954 235.151 83.8635 231.744 82.1068C229.987 81.2019 228.486 80.0308 227.943 77.9867C236.141 76.5707 242.986 78.9981 246.734 86.4931C250.854 94.7333 250.588 103.304 245.201 111.161C241.187 117.016 235.151 119.22 228.507 117.868C222.098 116.569 217.488 112.459 216.094 105.593Z" fill="#FFBA27"/>
<path d="M134.117 105.582C137.024 106.806 139.877 108.18 142.847 109.234C148.33 111.193 153.163 109.553 156.709 104.741C159.881 100.44 159.636 92.7318 155.633 87.9729C152.961 84.8003 149.608 82.192 146.328 79.1152C148.649 77.0499 151.268 78.338 153.493 77.7312C162.49 80.7547 168.409 91.0497 166.812 100.887C165.098 111.437 157.795 118.4 148.671 118.208C141.218 118.059 135.033 112.683 134.117 105.582Z" fill="#FFBA27"/>
<path d="M50.7998 105.593C54.0682 105.838 56.5382 108.244 59.6469 108.904C63.6925 109.755 67.5677 111.246 71.3791 107.477C76.2019 102.718 76.5958 97.3312 74.8817 91.4757C73.9448 88.2712 72.1244 85.5564 68.8559 83.8423C66.3967 82.5541 64.459 80.3716 62.9366 77.9443C71.6666 77.0926 78.6079 79.4773 82.2916 88.2392C85.7836 96.554 84.2079 106.998 78.3844 113.024C69.1753 122.51 55.3884 118.805 50.7998 105.593Z" fill="#FFBA27"/>
<path d="M299.029 105.295C301.574 106.508 304.054 107.903 306.695 108.883C313.232 111.31 317.586 110.086 321.206 105.071C324.719 100.184 324.485 93.669 321.344 88.7291C318.533 84.3109 313.2 82.4904 310.804 77.7847C311.837 77.7421 312.87 77.6995 313.902 77.6676C314.381 77.6676 314.85 77.6676 315.318 77.6676C325.464 76.422 331.969 88.4416 332.075 97.7571C332.214 109.266 324.016 118.358 314.19 118.198C306.716 118.092 300.573 112.854 299.029 105.295Z" fill="#FFBA27"/>
<path d="M133.096 104.486C133.468 104.858 133.841 105.231 134.203 105.614C133.83 105.241 133.468 104.858 133.096 104.486Z" fill="#DAC1AC"/>
</svg>
